<svg width="136" height="24" viewBox="0 0 136 24" fill="none" xmlns="http://www.w3.org/2000/svg">
<path d="M41.0827 14.948H35.9481L34.9113 17.3508H31.8667L37.2811 5.74846H39.6839L45.1148 17.3508H42.1196L41.0827 14.948ZM40.1118 12.6769L38.5154 8.95761L36.9191 12.6769H40.1118Z" fill="#2A2A2A"/>
<path d="M45.8017 5.74846H48.8299V14.8987H53.767V17.3508H45.8017V5.74846Z" fill="#2A2A2A"/>
<path d="M55.2196 5.74846H60.8315C62.1152 5.74846 63.1136 6.0776 63.8268 6.73589C64.5399 7.38321 64.8965 8.28836 64.8965 9.45133C64.8965 10.6033 64.5344 11.5085 63.8103 12.1668C63.0972 12.8251 62.1042 13.1542 60.8315 13.1542H58.2478V17.3508H55.2196V5.74846ZM60.4201 10.8831C60.9797 10.8831 61.3911 10.7679 61.6544 10.5375C61.9287 10.3071 62.0658 9.95054 62.0658 9.46779C62.0658 8.98504 61.9287 8.62847 61.6544 8.39807C61.3911 8.1567 60.9797 8.03601 60.4201 8.03601H58.2478V10.8831H60.4201Z" fill="#2A2A2A"/>
<path d="M77.0215 5.74846V17.3508H74.0592V12.6605H69.3195V17.3508H66.3572V5.74846H69.3195V10.2577H74.0592V5.74846H77.0215Z" fill="#2A2A2A"/>
<path d="M86.9348 14.948H81.8001L80.7633 17.3508H77.7187L83.1331 5.74846H85.5359L90.9668 17.3508H87.9716L86.9348 14.948ZM85.9638 12.6769L84.3674 8.95761L82.7711 12.6769H85.9638Z" fill="#2A2A2A"/>
<path d="M100.559 17.4989C99.6925 17.4989 98.8368 17.3837 97.992 17.1533C97.1472 16.9229 96.4614 16.6157 95.9348 16.2317L96.8729 14.0923C97.4324 14.4434 98.0304 14.7122 98.6667 14.8987C99.3031 15.0852 99.9449 15.1784 100.592 15.1784C101.25 15.1784 101.75 15.0907 102.09 14.9151C102.441 14.7286 102.616 14.4708 102.616 14.1416C102.616 13.8454 102.457 13.604 102.139 13.4175C101.832 13.231 101.24 13.0445 100.362 12.858C99.2756 12.6276 98.4253 12.3533 97.8109 12.0351C97.1965 11.7169 96.7632 11.3439 96.5108 10.916C96.2694 10.4881 96.1488 9.96151 96.1488 9.33613C96.1488 8.62299 96.3462 7.98664 96.7412 7.42709C97.1472 6.85658 97.7122 6.41223 98.4363 6.09406C99.1714 5.76491 100.011 5.60034 100.954 5.60034C101.788 5.60034 102.595 5.72103 103.373 5.9624C104.163 6.1928 104.778 6.49452 105.217 6.86755L104.295 9.00699C103.242 8.28287 102.134 7.92081 100.971 7.92081C100.411 7.92081 99.9613 8.03053 99.6212 8.24995C99.2811 8.45841 99.1111 8.73819 99.1111 9.08927C99.1111 9.29773 99.1714 9.46779 99.2921 9.59945C99.4128 9.7311 99.6377 9.86276 99.9668 9.99442C100.296 10.1151 100.784 10.2413 101.432 10.3729C102.485 10.6033 103.313 10.8831 103.917 11.2123C104.52 11.5304 104.948 11.9035 105.2 12.3313C105.453 12.7592 105.579 13.2694 105.579 13.8619C105.579 15.0029 105.14 15.8971 104.262 16.5444C103.384 17.1807 102.15 17.4989 100.559 17.4989Z" fill="#2A2A2A"/>
<path d="M112.541 9.05636C113.507 9.05636 114.225 9.3471 114.697 9.92859C115.169 10.4991 115.405 11.3713 115.405 12.5453V17.3508H112.475V12.6769C112.475 12.1942 112.388 11.8431 112.212 11.6237C112.047 11.4043 111.795 11.2945 111.455 11.2945C111.016 11.2945 110.665 11.4372 110.402 11.7224C110.149 11.9967 110.023 12.3697 110.023 12.8415V17.3508H107.094V5.74846H110.023V10.2248C110.319 9.84082 110.682 9.55008 111.109 9.35259C111.537 9.1551 112.015 9.05636 112.541 9.05636Z" fill="#2A2A2A"/>
<path d="M121.14 17.4825C120.251 17.4825 119.466 17.3124 118.786 16.9723C118.117 16.6212 117.596 16.1275 117.223 15.4911C116.861 14.8548 116.68 14.1087 116.68 13.253C116.68 12.3972 116.861 11.6566 117.223 11.0312C117.596 10.3949 118.117 9.90665 118.786 9.56653C119.455 9.22642 120.24 9.05636 121.14 9.05636C122.039 9.05636 122.824 9.22642 123.493 9.56653C124.162 9.90665 124.678 10.3949 125.04 11.0312C125.413 11.6566 125.599 12.3972 125.599 13.253C125.599 14.1087 125.413 14.8548 125.04 15.4911C124.678 16.1275 124.162 16.6212 123.493 16.9723C122.824 17.3124 122.039 17.4825 121.14 17.4825ZM121.14 15.2936C122.182 15.2936 122.703 14.6134 122.703 13.253C122.703 11.8925 122.182 11.2123 121.14 11.2123C120.097 11.2123 119.576 11.8925 119.576 13.253C119.576 14.6134 120.097 15.2936 121.14 15.2936Z" fill="#2A2A2A"/>
<path d="M132.291 9.05636C132.982 9.05636 133.597 9.23739 134.134 9.59945C134.683 9.95053 135.105 10.4497 135.402 11.0971C135.709 11.7444 135.862 12.4849 135.862 13.3188C135.862 14.1526 135.709 14.8877 135.402 15.524C135.105 16.1494 134.688 16.6322 134.151 16.9723C133.613 17.3124 132.993 17.4825 132.291 17.4825C131.775 17.4825 131.298 17.3782 130.859 17.1698C130.431 16.9613 130.097 16.6815 129.855 16.3305V20.3131H126.926V9.25385H129.806V10.2907C130.036 9.90665 130.371 9.60493 130.81 9.3855C131.26 9.16607 131.754 9.05636 132.291 9.05636ZM131.402 15.2936C131.907 15.2936 132.291 15.1236 132.554 14.7835C132.829 14.4434 132.966 13.9551 132.966 13.3188C132.966 12.6495 132.829 12.1393 132.554 11.7883C132.28 11.4262 131.891 11.2452 131.386 11.2452C130.881 11.2452 130.492 11.4207 130.218 11.7718C129.943 12.1229 129.806 12.6276 129.806 13.2859C129.806 13.9332 129.943 14.4324 130.218 14.7835C130.492 15.1236 130.887 15.2936 131.402 15.2936Z" fill="#2A2A2A"/>
<path fill-rule="evenodd" clip-rule="evenodd" d="M15.42 11.0822C15.42 11.0822 10.9399 18.3466 7.26675 18.3466C0.842036 18.3466 6.82942 4.50757 11.5152 4.50757C14.7848 4.50757 15.42 11.0822 15.42 11.0822Z" fill="#F67599"/>
<path fill-rule="evenodd" clip-rule="evenodd" d="M20.7436 20.2182C19.4673 21.5763 17.8921 22.6185 16.1428 23.262C14.3936 23.9055 12.5185 24.1327 10.6662 23.9256C8.81384 23.7185 7.03525 23.0827 5.47143 22.0687C3.9076 21.0547 2.60156 19.6904 1.65686 18.084C2.71897 19.5285 4.52039 20.4915 7.08195 20.4915C13.3921 20.4915 16.9741 15.5879 16.9741 15.5879C16.9741 15.5879 17.2839 19.4634 20.7358 20.2182H20.7436Z" fill="#F67599"/>
<path fill-rule="evenodd" clip-rule="evenodd" d="M22.6335 6.44678C23.578 8.25131 24.047 10.2667 23.9965 12.3027C23.9459 14.3388 23.3774 16.3284 22.3445 18.0838C21.5276 17.6256 20.9236 16.8647 20.6629 15.9652L19.2936 11.8632L22.6335 6.44678Z" fill="#808080"/>
<path fill-rule="evenodd" clip-rule="evenodd" d="M12.0019 0.0104213C15.0112 0.00842015 17.9109 1.13929 20.124 3.17801L17.8514 6.84532C17.0287 4.70583 15.3575 2.56375 12.1061 2.56375C5.44707 2.56375 0.511386 9.83334 0.511386 14.3908C0.509919 14.9802 0.585173 15.5673 0.735259 16.1373C0.0693495 14.3236 -0.148769 12.376 0.0994317 10.4599C0.347633 8.5439 1.05482 6.71609 2.16089 5.13186C3.26696 3.54763 4.73922 2.25381 6.45254 1.36036C8.16586 0.46691 10.0696 0.000233105 12.0019 0V0.0104213Z" fill="#808080"/>
</svg>
